<?xml version="1.0" encoding="UTF-8" standalone="no"?>
<svg
   class="chr-Header-logo"
   height="19.844"
   focusable="false"
   role="img"
   viewBox="0 0 19.5 19.844"
   width="19.5"
   version="1.1"
   id="svg78"
   sodipodi:docname="rally.svg"
   inkscape:version="1.2 (dc2aeda, 2022-05-15)"
   xmlns:inkscape="http://www.inkscape.org/namespaces/inkscape"
   xmlns:sodipodi="http://sodipodi.sourceforge.net/DTD/sodipodi-0.dtd"
   xmlns="http://www.w3.org/2000/svg"
   xmlns:svg="http://www.w3.org/2000/svg">
  <defs
     id="defs82" />
  <sodipodi:namedview
     id="namedview80"
     pagecolor="#ffffff"
     bordercolor="#666666"
     borderopacity="1.0"
     inkscape:showpageshadow="2"
     inkscape:pageopacity="0.0"
     inkscape:pagecheckerboard="0"
     inkscape:deskcolor="#d1d1d1"
     showgrid="false"
     inkscape:zoom="9.44"
     inkscape:cx="45.286017"
     inkscape:cy="12.870763"
     inkscape:window-width="1578"
     inkscape:window-height="791"
     inkscape:window-x="138"
     inkscape:window-y="51"
     inkscape:window-maximized="0"
     inkscape:current-layer="g76" />
  <g
     fill="#df4653"
     fill-rule="evenodd"
     id="g76"
     transform="translate(0,-0.297)">
    <title
       id="rally-logo-svg-title">title</title>
    <path
       d="m 7.993,16.78 a 3.738,3.738 0 0 1 -1.83,-3.228 c 0,-2.059 1.64,-3.728 3.663,-3.728 2.024,0 3.664,1.67 3.664,3.728 0,1.455 -0.82,2.716 -2.015,3.33 0.067,-0.193 0.103,-0.4 0.103,-0.617 0,-1.027 -0.818,-1.86 -1.828,-1.86 -1.01,0 -1.828,0.833 -1.828,1.86 0,0.179 0.025,0.352 0.071,0.515 z M 5.842,15.986 a 7.014,7.014 0 0 1 -2.88,-5.69 c 0,-3.857 3.073,-6.985 6.864,-6.985 3.792,0 6.865,3.128 6.865,6.986 a 7.014,7.014 0 0 1 -2.88,5.689 c 0.42,-0.711 0.662,-1.544 0.662,-2.434 0,-2.611 -2.08,-4.728 -4.647,-4.728 -2.566,0 -4.646,2.117 -4.646,4.728 0,0.89 0.241,1.723 0.662,2.434 z m 3.985,2.294 c 4.333,0 7.845,-3.575 7.845,-7.983 0,-4.41 -3.513,-7.984 -7.846,-7.984 -4.333,0 -7.846,3.575 -7.846,7.984 0,4.408 3.512,7.982 7.845,7.983 z M 9.75,20.14 C 4.365,20.14 0,15.7 0,10.22 0,4.74 4.365,0.297 9.75,0.297 c 5.385,0 9.75,4.443 9.75,9.923 0,5.48 -4.365,9.921 -9.75,9.921 z"
       id="path74" />
  </g>
</svg>
