<?xml version="1.0" encoding="UTF-8" standalone="no"?>
<svg
   class="chr-Header-logo"
   height="19.844"
   focusable="false"
   role="img"
   viewBox="0 0 19.5 19.844"
   width="19.5"
   version="1.1"
   id="svg78"
   sodipodi:docname="rally_hug_onion.svg"
   inkscape:version="1.2 (dc2aeda, 2022-05-15)"
   xmlns:inkscape="http://www.inkscape.org/namespaces/inkscape"
   xmlns:sodipodi="http://sodipodi.sourceforge.net/DTD/sodipodi-0.dtd"
   xmlns="http://www.w3.org/2000/svg"
   xmlns:svg="http://www.w3.org/2000/svg">
  <defs
     id="defs82" />
  <sodipodi:namedview
     id="namedview80"
     pagecolor="#ffffff"
     bordercolor="#666666"
     borderopacity="1.0"
     inkscape:showpageshadow="2"
     inkscape:pageopacity="0.0"
     inkscape:pagecheckerboard="0"
     inkscape:deskcolor="#d1d1d1"
     showgrid="false"
     inkscape:zoom="20.336546"
     inkscape:cx="18.316778"
     inkscape:cy="12.809452"
     inkscape:window-width="1578"
     inkscape:window-height="791"
     inkscape:window-x="138"
     inkscape:window-y="25"
     inkscape:window-maximized="0"
     inkscape:current-layer="g76" />
  <g
     fill="#df4653"
     fill-rule="evenodd"
     id="g76"
     transform="translate(0,-0.297)">
    <title
       id="rally-logo-svg-title">title</title>
    <path
       d="M 9.4487243,16.994779 C 8.3100219,16.318875 6.5519386,14.876185 6.2465252,13.587796 6.019814,12.657244 6.6381176,11.241015 7.4976102,10.861364 c 1.450119,-0.640539 2.1561127,1.068701 2.2440616,1.070842 0.077685,0.0019 0.7473882,-1.872675 2.5349292,-1.151532 0.937029,0.378023 1.51568,1.713881 1.213399,2.771326 -0.405694,1.419204 -1.846166,2.871118 -3.041166,3.485118 0.067,-0.193 -0.07915,-1.367494 -0.09985,-1.583505 -0.08352,-0.871882 -0.4319367,-0.905427 -0.4319367,-0.905427 -0.067794,0.01948 -0.3603435,-0.04998 -0.4558008,0.905427 -0.017796,0.178113 -0.058525,1.378166 -0.012525,1.541166 z M 6.8593361,15.986 C 5.0427338,14.660654 3.8523039,12.534908 3.4902322,10.315564 2.8641792,6.4781283 6.1132566,3.1349226 9.8651283,5.717391 13.657128,2.8414603 17.121411,7.1628737 16.319281,10.297 c -0.442675,2.189628 -1.357146,4.363862 -3.173462,5.689 0.42,-0.711 0.975026,-1.544 0.975026,-2.434 0,-2.611 -1.786537,-4.0041263 -4.3535375,-4.0041263 -2.566,0 -3.9612545,1.3931263 -3.9612545,4.0041263 0,0.89 0.6322831,1.723 1.0532831,2.434 z m 3.1633059,2.098358 c 3.890447,0.09835 6.665907,-4.903707 7.059287,-7.836531 C 17.361771,8.1614818 16.912245,7.0192062 16.062007,5.5454886 15.823207,5.1315769 14.652634,4.3204803 13.372733,4.3082817 12.023621,4.2954233 10.23542,4.9474892 9.7868717,4.9467384 9.497304,4.9462536 7.5710402,4.2583755 6.4896353,4.3251075 5.419718,4.3911306 4.6260272,5.0611991 3.915638,5.7134776 2.7510484,6.7828023 2.3136894,8.2913335 2.6192433,10.247827 c 0.6884158,4.408 4.4945816,7.643269 6.8144736,7.797403 z m 0.02082,0.157919 C 6.5142536,18.238596 2.939824,15.521479 1.0992631,10.387082 0.22043999,7.9355323 -0.04010018,4.8467111 2.3018139,2.9215435 4.8012325,0.86689946 9.258939,4.1106858 9.7796084,4.0881695 10.115486,4.0736446 14.575259,0.63460072 17.207564,2.5715021 19.208782,4.0440366 18.664067,7.8531894 18.664067,10.22 c -0.688416,4.644067 -6.102458,7.965109 -7.661961,8.023277 z"
       id="path74"
       inkscape:label="path74"
       style="display:inline"
       sodipodi:nodetypes="ccsssscsssccssccssscscsssssssscsssssccs" />
  </g>
</svg>
